HIERARCHY
ROOT Hips
{
  OFFSET 49.6878 100.652 10.9139
  CHANNELS 6 Xposition Yposition Zposition Zrotation Xrotation Yrotation
  JOINT spine
  {
    OFFSET 0 8.81705 0.507024
    CHANNELS 3 Zrotation Xrotation Yrotation
    JOINT spine1
    {
      OFFSET 0 10.7766 0
      CHANNELS 3 Zrotation Xrotation Yrotation
      JOINT spine2
      {
        OFFSET 0 10.3259 0
        CHANNELS 3 Zrotation Xrotation Yrotation
        JOINT Neck
        {
          OFFSET 0 26.511 1.26395
          CHANNELS 3 Zrotation Xrotation Yrotation
          JOINT Head
          {
            OFFSET 0 8.00966 0
            CHANNELS 3 Zrotation Xrotation Yrotation
            End Site
            {
              OFFSET 0 19.3879 -6.39386
            }
          }
        }
        JOINT RightShoulder
        {
          OFFSET -4.34795 11.1512 -0.605422
          CHANNELS 3 Zrotation Xrotation Yrotation
          JOINT RightArm
          {
            OFFSET 0 14.6258 0
            CHANNELS 3 Zrotation Xrotation Yrotation
            JOINT RightArmRoll
            {
              OFFSET 0 7.3834 0
              CHANNELS 3 Zrotation Xrotation Yrotation
              JOINT RightForeArm
              {
                OFFSET 0 21.5052 0
                CHANNELS 3 Zrotation Xrotation Yrotation
                JOINT RightForeArmRoll
                {
                  OFFSET 0 8.28532 0
                  CHANNELS 3 Zrotation Xrotation Yrotation
                  JOINT RightHand
                  {
                    OFFSET 0 16.6268 0
                    CHANNELS 3 Zrotation Xrotation Yrotation
                    End Site
                    {
                      OFFSET 0 0 0
                    }
                  }
                }
              }
            }
          }
        }
        JOINT LeftShoulder
        {
          OFFSET 4.34795 11.1512 -0.605422
          CHANNELS 3 Zrotation Xrotation Yrotation
          JOINT LeftArm
          {
            OFFSET 0 14.6258 0
            CHANNELS 3 Zrotation Xrotation Yrotation
            JOINT LeftArmRoll
            {
              OFFSET 0 7.3834 0
              CHANNELS 3 Zrotation Xrotation Yrotation
              JOINT LeftForeArm
              {
                OFFSET 0 21.5052 0
                CHANNELS 3 Zrotation Xrotation Yrotation
                JOINT LeftForeArmRoll
                {
                  OFFSET 0 8.28532 0
                  CHANNELS 3 Zrotation Xrotation Yrotation
                  JOINT LeftHand
                  {
                    OFFSET 0 16.6268 0
                    CHANNELS 3 Zrotation Xrotation Yrotation
                    End Site
                    {
                      OFFSET 0 0 0
                    }
                  }
                }
              }
            }
          }
        }
      }
    }
  }
  JOINT RightUpLeg
  {
    OFFSET -7.8151 -1.43309 -1.20217
    CHANNELS 3 Zrotation Xrotation Yrotation
    JOINT RightUpLegRoll
    {
      OFFSET 0 19.4959 0
      CHANNELS 3 Zrotation Xrotation Yrotation
      JOINT RightLeg
      {
        OFFSET 0 -24.1427 0
        CHANNELS 3 Zrotation Xrotation Yrotation
        JOINT RightLegRoll
        {
          OFFSET 0 24.2217 0
          CHANNELS 3 Zrotation Xrotation Yrotation
          JOINT RightFoot
          {
            OFFSET 0 20.1605 0
            CHANNELS 3 Zrotation Xrotation Yrotation
            JOINT RightToeBase
            {
              OFFSET 0 16.8532 0
              CHANNELS 3 Zrotation Xrotation Yrotation
              End Site
              {
                OFFSET 0.00714343 8.16187 -0.94078
              }
            }
          }
        }
      }
    }
  }
  JOINT LeftUpLeg
  {
    OFFSET 7.8151 -1.43309 -1.20217
    CHANNELS 3 Zrotation Xrotation Yrotation
    JOINT LeftUpLegRoll
    {
      OFFSET 0 19.496 0
      CHANNELS 3 Zrotation Xrotation Yrotation
      JOINT LeftLeg
      {
        OFFSET 0 24.1426 0
        CHANNELS 3 Zrotation Xrotation Yrotation
        JOINT LeftLegRoll
        {
          OFFSET 0 24.4456 0
          CHANNELS 3 Zrotation Xrotation Yrotation
          JOINT LeftFoot
          {
            OFFSET 0 19.9366 0
            CHANNELS 3 Zrotation Xrotation Yrotation
            JOINT LeftToeBase
            {
              OFFSET 0 16.8532 0
              CHANNELS 3 Zrotation Xrotation Yrotation
              End Site
              {
                OFFSET -0.0320138 8.16187 -0.94078
              }
            }
          }
        }
      }
    }
  }
}
MOTION
Frames: 9
Frame Time: 0.00208333
50.1262 100.55 10.8442 -0.599407 -2.3599 1.94949 0.144255 -1.87888 -0.0920162 0.285424 0.2448 -0.197922 0.288313 1.88986 -0.20286 -1.69457 26.2122 2.48957 -5.40367 4.08732 1.51161 69.1415 -2.82309 -2.67071 105.303 18.1392 12.6998 2.68845e-007 -5.8483e-008 -7.74466e-007 13.5312 1.61708 -0.403379 -1.29106e-005 1.36443e-006 -3.00767 8.02891 -4.95144 0.69768 -60.5616 -4.46832 2.91358 -111.12 11.9031 -4.04976 1.59028e-015 1.55018e-006 -0 -12.21 7.60039 1.29926 1.84916e-006 -2.2305e-006 3.01152 -8.02887 -4.95143 -0.697669 178.34 -1.41384 -0.359198 180 7.01543e-015 178.907 178.469 5.12488 179.736 -1.494e-006 -2.10155e-006 0.0265866 -18.2884 67.4937 19.1223 8.13649 25.2327 -3.48774 -176.591 0.0143168 1.77512 4.54188e-006 -4.6773e-006 -1.12172 -2.38203 -8.68722 0.166458 1.48736e-006 -4.48412e-006 -0.142368 19.6463 69.1328 -20.5296 -8.15004 25.4529 3.18597 
50.1257 100.552 10.8437 -0.600201 -2.34933 1.94567 0.144201 -1.88317 -0.094657 0.285049 0.236208 -0.203185 0.28794 1.88127 -0.208115 -1.70003 26.2405 2.49638 -5.40887 4.06993 1.51482 69.1529 -2.80619 -2.66322 105.276 18.1003 12.743 2.68845e-007 -5.8483e-008 -7.74466e-007 13.5051 1.6881 -0.414556 -1.29106e-005 1.36443e-006 -3.00767 8.02891 -4.95144 0.69768 -60.5855 -4.47383 2.91842 -111.088 11.8155 -4.15792 -2.90226e-014 1.55018e-006 -6.36111e-015 -12.1423 7.72822 1.31396 1.84916e-006 -2.2305e-006 3.01152 -8.02887 -4.95143 -0.697669 178.34 -1.40212 -0.361025 180 7.01543e-015 178.907 178.47 5.12647 179.736 -1.494e-006 -2.10155e-006 0.0265866 -18.2883 67.4936 19.1222 8.13649 25.2327 -3.48774 -176.592 0.0265309 1.77676 4.54188e-006 -4.6773e-006 -1.12172 -2.38149 -8.68832 0.166493 1.48736e-006 -4.48412e-006 -0.142368 19.6452 69.1317 -20.5284 -8.14999 25.4522 3.18692 
50.1283 100.567 10.8426 -0.600944 -2.33799 1.94213 0.14412 -1.88777 -0.0974606 0.284598 0.22701 -0.20877 0.287493 1.87207 -0.213691 -1.70546 26.2712 2.50352 -5.41456 4.05115 1.51821 69.1654 -2.78817 -2.65526 105.248 18.0624 12.7861 2.68845e-007 -5.8483e-008 -7.74466e-007 13.4796 1.75456 -0.42511 -1.29106e-005 1.36443e-006 -3.00767 8.02891 -4.95144 0.69768 -60.6105 -4.47901 2.92315 -111.055 11.7286 -4.26478 -3.97569e-016 1.55018e-006 -0 -12.0759 7.85395 1.32862 1.84916e-006 -2.2305e-006 3.01152 -8.02887 -4.95143 -0.697669 178.34 -1.3895 -0.362895 180 7.01543e-015 178.907 178.472 5.12818 179.736 -1.494e-006 -2.10155e-006 0.0265866 -18.2882 67.4935 19.1221 8.13649 25.2327 -3.48774 -176.594 0.0397637 1.77871 4.54188e-006 -4.6773e-006 -1.12172 -2.38079 -8.6893 0.166561 1.48736e-006 -4.48412e-006 -0.142368 19.6439 69.1303 -20.527 -8.14993 25.4513 3.18798 
50.1337 100.562 10.842 -0.601651 -2.32612 1.93878 0.14402 -1.89258 -0.100378 0.284095 0.217387 -0.214581 0.286993 1.86245 -0.219491 -1.71088 26.3037 2.51089 -5.42059 4.03139 1.52174 69.1786 -2.76936 -2.64698 105.22 18.0253 12.8291 2.68845e-007 -5.8483e-008 -7.74466e-007 13.4545 1.81784 -0.435228 -1.29106e-005 1.36443e-006 -3.00767 8.02891 -4.95144 0.69768 -60.6365 -4.48396 2.92779 -111.022 11.6423 -4.37073 1.19271e-015 1.55018e-006 -0 -12.0103 7.9782 1.34325 1.84916e-006 -2.2305e-006 3.01152 -8.02887 -4.95143 -0.697669 178.34 -1.37625 -0.364797 180 7.01543e-015 178.907 178.473 5.12994 179.736 -1.494e-006 -2.10155e-006 0.0265866 -18.288 67.4933 19.122 8.13649 25.2327 -3.48774 -176.596 0.0537096 1.78087 4.54188e-006 -4.6773e-006 -1.12172 -2.37995 -8.6902 0.166651 1.48736e-006 -4.48412e-006 -0.142368 19.6424 69.1287 -20.5254 -8.14987 25.4504 3.18913 
50.1319 100.558 10.8421 -0.602337 -2.31396 1.93555 0.143908 -1.8975 -0.103361 0.28356 0.207522 -0.220519 0.286462 1.85258 -0.225419 -1.71629 26.3371 2.5184 -5.42682 4.01106 1.52535 69.1923 -2.75011 -2.63852 105.19 17.9886 12.8721 2.68845e-007 -5.8483e-008 -7.74466e-007 13.4296 1.87931 -0.445098 -1.29106e-005 1.36443e-006 -3.00767 8.02891 -4.95144 0.69768 -60.663 -4.48877 2.9324 -110.988 11.5562 -4.47613 -1.11319e-014 1.55018e-006 -3.18055e-015 -11.9453 8.1016 1.35787 1.84916e-006 -2.2305e-006 3.01152 -8.02887 -4.95143 -0.697669 178.339 -1.36264 -0.366715 180 7.01543e-015 178.907 178.475 5.13174 179.736 -1.494e-006 -2.10155e-006 0.0265866 -18.2879 67.4932 19.1218 8.13649 25.2327 -3.48774 -176.598 0.0680629 1.78316 4.54188e-006 -4.6773e-006 -1.12172 -2.37905 -8.69106 0.166754 1.48736e-006 -4.48412e-006 -0.142368 19.6408 69.127 -20.5237 -8.1498 25.4494 3.19032 
50.1308 100.559 10.8552 -0.603017 -2.30171 1.93235 0.143793 -1.90246 -0.10636 0.283016 0.197597 -0.226491 0.285922 1.84266 -0.23138 -1.72171 26.3708 2.52594 -5.4331 3.9906 1.52897 69.2062 -2.73074 -2.63001 105.161 17.952 12.915 2.68845e-007 -5.8483e-008 -7.74466e-007 13.4048 1.94031 -0.454907 -1.29106e-005 1.36443e-006 -3.00767 8.02891 -4.95144 0.69768 -60.6896 -4.49356 2.93699 -110.954 11.4702 -4.58135 4.77083e-015 1.55018e-006 -0 -11.8805 8.22479 1.37251 1.84916e-006 -2.2305e-006 3.01152 -8.02887 -4.95143 -0.697669 178.339 -1.34894 -0.368638 180 7.01543e-015 178.907 178.476 5.13355 179.736 -1.494e-006 -2.10155e-006 0.0265866 -18.2878 67.493 19.1217 8.13649 25.2327 -3.48774 -176.6 0.0825181 1.78548 4.54188e-006 -4.6773e-006 -1.12172 -2.37813 -8.6919 0.166859 1.48736e-006 -4.48412e-006 -0.142368 19.6392 69.1252 -20.522 -8.14973 25.4485 3.19152 
50.1219 100.555 10.8526 -0.603705 -2.28962 1.92909 0.143683 -1.90736 -0.109327 0.282484 0.187793 -0.232397 0.285395 1.83285 -0.237276 -1.72715 26.404 2.53342 -5.43927 3.97042 1.53256 69.2198 -2.7116 -2.6216 105.132 17.9152 12.958 2.68845e-007 -5.8483e-008 -7.74466e-007 13.3799 2.00223 -0.464841 -1.29106e-005 1.36443e-006 -3.00767 8.02891 -4.95144 0.69768 -60.7159 -4.49841 2.9416 -110.921 11.3841 -4.68676 -9.54166e-015 1.55018e-006 -1.59028e-015 -11.8155 8.3484 1.38717 1.84916e-006 -2.2305e-006 3.01152 -8.02887 -4.95143 -0.697669 178.339 -1.33542 -0.370552 180 7.01543e-015 178.907 178.477 5.13534 179.736 -1.494e-006 -2.10155e-006 0.0265866 -18.2877 67.4929 19.1216 8.13649 25.2327 -3.48774 -176.602 0.0967696 1.78773 4.54188e-006 -4.6773e-006 -1.12172 -2.37724 -8.69276 0.166959 1.48736e-006 -4.48412e-006 -0.142368 19.6376 69.1236 -20.5203 -8.14967 25.4475 3.1927 
50.1224 100.555 10.8474 -0.604417 -2.2779 1.92569 0.143586 -1.91211 -0.112212 0.281988 0.178292 -0.238143 0.284901 1.82335 -0.243012 -1.73261 26.436 2.54075 -5.4452 3.95094 1.53605 69.2328 -2.69302 -2.61341 105.104 17.8779 13.001 2.68845e-007 -5.8483e-008 -7.74466e-007 13.3547 2.06642 -0.47509 -1.29106e-005 1.36443e-006 -3.00767 8.02891 -4.95144 0.69768 -60.7416 -4.50342 2.94627 -110.889 11.2975 -4.79273 3.18055e-015 1.55018e-006 -3.18055e-015 -11.75 8.47307 1.40188 1.84916e-006 -2.2305e-006 3.01152 -8.02887 -4.95143 -0.697669 178.338 -1.32235 -0.372445 180 7.01543e-015 178.907 178.479 5.13709 179.736 -1.494e-006 -2.10155e-006 0.0265866 -18.2875 67.4927 19.1214 8.13649 25.2327 -3.48774 -176.604 0.110512 1.78984 4.54188e-006 -4.6773e-006 -1.12172 -2.37645 -8.69369 0.167043 1.48736e-006 -4.48412e-006 -0.142368 19.6361 69.122 -20.5187 -8.14961 25.4466 3.19383 
50.1243 100.561 10.8533 -0.605166 -2.2668 1.92206 0.14351 -1.91661 -0.114967 0.281548 0.169275 -0.243632 0.284465 1.81433 -0.248491 -1.73811 26.466 2.54782 -5.45072 3.93257 1.53939 69.2449 -2.67533 -2.6056 105.076 17.8397 13.044 2.68845e-007 -5.8483e-008 -7.74466e-007 13.3292 2.13425 -0.485839 -1.29106e-005 1.36443e-006 -3.00767 8.02891 -4.95144 0.69768 -60.7663 -4.5087 2.95103 -110.859 11.2103 -4.89963 1.03368e-014 1.55018e-006 3.18055e-015 -11.6835 8.59941 1.41664 1.84916e-006 -2.2305e-006 3.01152 -8.02887 -4.95143 -0.697669 178.338 -1.31 -0.374302 180 7.01543e-015 178.907 178.48 5.13875 179.735 -1.494e-006 -2.10155e-006 0.0265866 -18.2874 67.4926 19.1213 8.13649 25.2327 -3.48774 -176.606 0.123439 1.79169 4.54188e-006 -4.6773e-006 -1.12172 -2.37579 -8.69471 0.167101 1.48736e-006 -4.48412e-006 -0.142368 19.6349 69.1207 -20.5174 -8.14955 25.4458 3.19486 
